<svg width="91" height="40" viewBox="0 0 91 40" fill="none" xmlns="http://www.w3.org/2000/svg">
<g clip-path="url(#clip0_491_523)">
<path fill-rule="evenodd" clip-rule="evenodd" d="M4.73353 8.21309V19.2357V20.6614V39.7084H12.6422V8.74212H17.1308H20.8714V13.1511H17.1308V39.7084H27.1711C33.1538 39.7084 38.0038 34.8585 38.0038 28.8757C38.0038 24.0031 34.7963 19.9134 30.4196 18.5377C32.33 16.5963 33.5152 13.9311 33.5152 10.9748C33.5152 5.01781 28.6861 0.18869 22.7291 0.18869H0V8.21309H4.73353Z" fill="#030CEF"/>
<path d="M83.7483 25.488L78.9422 32.2685L83.9301 39.2829H80.293L77.0455 34.4507L73.7722 39.2829H70.1351L75.1491 32.2426L70.343 25.488H73.9801L77.0455 30.0603L80.0851 25.488H83.7483Z" fill="black"/>
<path d="M64.8678 39.2793C63.5168 39.2793 62.3305 38.9848 61.3087 38.396C60.3041 37.8071 59.5161 36.9671 58.9445 35.876C58.3903 34.7849 58.1132 33.5206 58.1132 32.083C58.1132 30.6282 58.3903 29.3639 58.9445 28.2901C59.5161 27.1989 60.3041 26.3589 61.3087 25.7701C62.3305 25.1812 63.5168 24.8868 64.8678 24.8868C66.2187 24.8868 67.4051 25.1812 68.427 25.7701C69.4489 26.3589 70.2368 27.1989 70.791 28.2901C71.3453 29.3639 71.6224 30.6282 71.6224 32.083C71.6224 33.5206 71.3453 34.7849 70.791 35.876C70.2368 36.9671 69.4489 37.8071 68.427 38.396C67.4051 38.9848 66.2187 39.2793 64.8678 39.2793ZM64.8678 36.6293C65.9762 36.6293 66.8249 36.231 67.4137 35.4343C68.0026 34.6376 68.297 33.5206 68.297 32.083C68.297 30.6455 68.0026 29.5284 67.4137 28.7318C66.8249 27.9349 65.9762 27.5366 64.8678 27.5366C63.7766 27.5366 62.928 27.9349 62.3218 28.7318C61.733 29.5284 61.4386 30.6455 61.4386 32.083C61.4386 33.5206 61.733 34.6376 62.3218 35.4343C62.928 36.231 63.7766 36.6293 64.8678 36.6293Z" fill="black"/>
<path d="M78.425 0.2547H78.3589V0.320737V18.9121V18.9806L78.4275 18.9781L80.6216 18.8969H82.2153H82.2813V18.8309V11.089C82.2813 9.92002 82.5392 9.04617 83.0444 8.45653C83.5668 7.86703 84.2834 7.56992 85.2028 7.56992C85.7816 7.56992 86.2331 7.70604 86.5645 7.97112L86.5658 7.97224L86.5673 7.97328C86.9167 8.22287 87.1693 8.59895 87.3218 9.10759C87.4752 9.61876 87.5528 10.2785 87.5528 11.089V18.8309V18.8969H87.6189H90.8403H90.9064V18.8309V9.9719C90.9064 8.40164 90.4961 7.12966 89.6699 6.16249C88.8584 5.17496 87.7039 4.68405 86.216 4.68405C85.0789 4.68405 84.0956 4.96413 83.2692 5.52684L83.2687 5.52722C82.8713 5.80363 82.5424 6.15755 82.2813 6.58786V0.38559V0.319552H82.2153H79.6488L78.9213 0.254959L78.9184 0.2547H78.9155H78.425ZM79.0061 0.395076L78.9278 18.8274L78.491 18.8435V0.386775H78.9126L79.0061 0.395076Z" fill="black" stroke="black" stroke-width="0.132075"/>
<path d="M73.9294 9.91353C73.8081 9.06488 73.4704 8.40674 72.9161 7.93912C72.3619 7.4715 71.7038 7.23768 70.9417 7.23768C69.8506 7.23768 69.0019 7.63602 68.3958 8.43271C67.8069 9.22942 67.5125 10.3465 67.5125 11.784C67.5125 13.2215 67.8069 14.3387 68.3958 15.1354C69.0019 15.9321 69.8506 16.3304 70.9417 16.3304C71.7557 16.3304 72.4398 16.0879 72.994 15.6029C73.5483 15.1007 73.8946 14.3906 74.0332 13.4727L77.3586 13.6286C77.2374 14.7196 76.8823 15.6723 76.2934 16.4863C75.7046 17.2829 74.9425 17.8978 74.0073 18.3308C73.0894 18.7638 72.0675 18.9802 70.9417 18.9802C69.5908 18.9802 68.4044 18.6859 67.3825 18.0969C66.3781 17.5081 65.59 16.6681 65.0185 15.5771C64.4642 14.4859 64.1871 13.2215 64.1871 11.784C64.1871 10.3292 64.4642 9.06488 65.0185 7.99108C65.59 6.89995 66.3781 6.05995 67.3825 5.47109C68.4044 4.88224 69.5908 4.5878 70.9417 4.5878C72.0329 4.5878 73.0374 4.79563 73.9553 5.2113C74.8732 5.62697 75.618 6.22449 76.1895 7.00387C76.7784 7.78325 77.1334 8.69251 77.2546 9.73168L73.9294 9.91353Z" fill="black"/>
<path d="M50.088 11.784C50.088 10.3292 50.3651 9.06488 50.9195 7.99108C51.4736 6.89995 52.2616 6.05995 53.2835 5.47109C54.3053 4.88224 55.4918 4.5878 56.8426 4.5878C58.0377 4.5878 59.1116 4.85626 60.0641 5.39316C61.0166 5.93006 61.7787 6.74408 62.3502 7.83521C62.9218 8.90901 63.2249 10.2339 63.2595 11.81V12.6673H53.4653C53.5347 13.845 53.8637 14.7629 54.4526 15.4211C55.0414 16.0619 55.8381 16.3823 56.8426 16.3823C57.4835 16.3823 58.0637 16.2178 58.5833 15.8888C59.1202 15.5423 59.5185 15.0661 59.7783 14.4598L63.0777 14.6937C62.662 16.01 61.8826 17.0578 60.7395 17.8371C59.6137 18.5992 58.3148 18.9802 56.8426 18.9802C55.4918 18.9802 54.3053 18.6859 53.2835 18.0969C52.2616 17.5081 51.4736 16.6681 50.9195 15.5771C50.3651 14.4859 50.088 13.2215 50.088 11.784ZM59.9341 10.4591C59.7956 9.33334 59.4406 8.502 58.8691 7.9651C58.3148 7.42819 57.6393 7.15974 56.8426 7.15974C55.9074 7.15974 55.1541 7.45417 54.5824 8.04304C54.0109 8.61457 53.6472 9.41993 53.4914 10.4591H59.9341Z" fill="black"/>
<path d="M40.6132 4.00033V4.06637H40.6793H44.5411V18.9119V18.978H44.6072H46.4422H47.4164H47.9035H48.3906H48.418L48.4374 18.9587L48.4985 18.8975L48.5379 18.8984V18.8307L48.516 3.49769H53.1109H53.1769V3.43165V0.547971V0.481934H53.1109H40.7605H40.6944V0.547971V3.36562H40.6793V3.43165H40.6132V4.00033ZM45.1748 18.8156L46.4053 18.8459H44.6732V4.00033V3.93429H44.6072H40.7453V3.49769H40.7605H40.8265H45.1104V18.7496V18.814L45.1748 18.8156Z" fill="black" stroke="black" stroke-width="0.132075"/>
<path d="M42.3827 20.7264H42.3167V20.7925V39.283V39.3491H42.3827H44.1989L44.2016 39.2682H50.4412C52.6297 39.2682 54.3159 38.8276 55.4904 37.9371L55.491 37.9367C56.6683 37.0264 57.2544 35.7137 57.2544 34.0087C57.2544 32.667 56.823 31.6056 55.9547 30.8331C55.3016 30.2404 54.4412 29.8622 53.3776 29.6954C53.812 29.6072 54.2065 29.4714 54.5605 29.2873C55.1842 28.972 55.6625 28.533 55.9931 27.9701L55.9935 27.9693C56.3237 27.3895 56.4877 26.7147 56.4877 25.9471C56.4877 24.2085 55.902 22.9114 54.7224 22.0695C53.5474 21.2135 51.7758 20.7909 49.4188 20.7909H43.3065V20.7264H43.2404H42.3827ZM42.4488 20.8585H42.8866V39.0407V39.2022V39.217H42.4488V20.8585ZM52.9563 31.9161L52.9572 31.9169C53.5347 32.3505 53.8255 32.9755 53.8255 33.802C53.8255 34.6282 53.5348 35.2532 52.9578 35.6868C52.3768 36.106 51.5576 36.3198 50.4923 36.3198H46.239V31.2325H50.4923C51.557 31.2325 52.3756 31.4633 52.9563 31.9161ZM52.1677 27.8819C51.5695 28.2851 50.7155 28.4908 49.5978 28.4908H46.239V23.7136H49.5978C50.7503 23.7136 51.612 23.9195 52.1925 24.3219C52.7685 24.7211 53.0587 25.3194 53.0587 26.1281C53.0587 26.9003 52.7614 27.4818 52.1677 27.8819Z" fill="black" stroke="black" stroke-width="0.132075"/>
</g>
<defs>
<clipPath id="clip0_491_523">
<rect width="91" height="39.6226" fill="white" transform="translate(0 0.18869)"/>
</clipPath>
</defs>
</svg>
