<svg width="107" height="47" viewBox="0 0 107 47" fill="none" xmlns="http://www.w3.org/2000/svg">
<g clip-path="url(#clip0_491_106)">
<path fill-rule="evenodd" clip-rule="evenodd" d="M5.5658 9.43578V22.3964V24.0728V46.4688H14.865V10.0578H20.1429H24.541V15.2421H20.1429V46.4688H31.9484C38.9831 46.4688 44.6858 40.7661 44.6858 33.7314C44.6858 28.002 40.9144 23.1932 35.7681 21.5757C38.0143 19.2929 39.408 16.1592 39.408 12.6831C39.408 5.67868 33.7298 0.000488281 26.7255 0.000488281H0V9.43578H5.5658Z" fill="white"/>
<path d="M98.4732 29.748L92.8221 37.7207L98.6871 45.9684H94.4105L90.592 40.2867L86.7431 45.9684H82.4666L88.3621 37.6903L82.711 29.748H86.9876L90.592 35.1243L94.166 29.748H98.4732Z" fill="white"/>
<path d="M76.2731 45.9641C74.6846 45.9641 73.2897 45.6178 72.0882 44.9255C70.907 44.233 69.9805 43.2453 69.3084 41.9624C68.6567 40.6795 68.3309 39.1928 68.3309 37.5026C68.3309 35.792 68.6567 34.3053 69.3084 33.0427C69.9805 31.7597 70.907 30.772 72.0882 30.0796C73.2897 29.3872 74.6846 29.041 76.2731 29.041C77.8615 29.041 79.2566 29.3872 80.4581 30.0796C81.6596 30.772 82.5861 31.7597 83.2378 33.0427C83.8896 34.3053 84.2154 35.792 84.2154 37.5026C84.2154 39.1928 83.8896 40.6795 83.2378 41.9624C82.5861 43.2453 81.6596 44.233 80.4581 44.9255C79.2566 45.6178 77.8615 45.9641 76.2731 45.9641ZM76.2731 42.8482C77.5764 42.8482 78.5743 42.3798 79.2667 41.4431C79.9591 40.5063 80.3053 39.1928 80.3053 37.5026C80.3053 35.8123 79.9591 34.4988 79.2667 33.562C78.5743 32.6251 77.5764 32.1568 76.2731 32.1568C74.9901 32.1568 73.9923 32.6251 73.2795 33.562C72.5872 34.4988 72.241 35.8123 72.241 37.5026C72.241 39.1928 72.5872 40.5063 73.2795 41.4431C73.9923 42.3798 74.9901 42.8482 76.2731 42.8482Z" fill="white"/>
<path d="M92.214 0.078125H92.1363V0.155774V22.0159V22.0965L92.2169 22.0936L94.7969 21.9981H96.6707H96.7483V21.9204V12.8174C96.7483 11.4428 97.0516 10.4153 97.6457 9.72204C98.2599 9.02888 99.1025 8.67954 100.184 8.67954C100.864 8.67954 101.395 8.83959 101.785 9.15127L101.786 9.15259L101.788 9.15382C102.199 9.44729 102.496 9.8895 102.675 10.4876C102.855 11.0886 102.947 11.8644 102.947 12.8174V21.9204V21.9981H103.024H106.812H106.89V21.9204V11.5038C106.89 9.6575 106.408 8.16187 105.436 7.02465C104.482 5.86349 103.124 5.28626 101.375 5.28626C100.038 5.28626 98.8817 5.61558 97.91 6.27723L97.9094 6.27768C97.4421 6.60269 97.0554 7.01884 96.7483 7.52481V0.23203V0.15438H96.6707H93.653L92.7976 0.0784294L92.7942 0.078125H92.7907H92.214ZM92.8973 0.243183L92.8052 21.9164L92.2916 21.9353V0.233423H92.7873L92.8973 0.243183Z" fill="white" stroke="white" stroke-width="0.155298"/>
<path d="M86.928 11.4352C86.7854 10.4374 86.3883 9.66349 85.7365 9.11366C85.0849 8.56382 84.311 8.28889 83.415 8.28889C82.1321 8.28889 81.1341 8.75727 80.4215 9.69404C79.729 10.6308 79.3828 11.9443 79.3828 13.6346C79.3828 15.3249 79.729 16.6385 80.4215 17.5752C81.1341 18.512 82.1321 18.9804 83.415 18.9804C84.3721 18.9804 85.1765 18.6952 85.8281 18.125C86.4799 17.5344 86.8871 16.6995 87.05 15.6202L90.9601 15.8034C90.8175 17.0863 90.4001 18.2065 89.7076 19.1636C89.0153 20.1004 88.1192 20.8233 87.0196 21.3325C85.9403 21.8416 84.7387 22.0961 83.415 22.0961C81.8266 22.0961 80.4316 21.7499 79.23 21.0575C78.049 20.3651 77.1223 19.3774 76.4503 18.0945C75.7986 16.8115 75.4727 15.3249 75.4727 13.6346C75.4727 11.924 75.7986 10.4374 76.4503 9.17476C77.1223 7.89178 78.049 6.90409 79.23 6.21169C80.4316 5.5193 81.8266 5.1731 83.415 5.1731C84.698 5.1731 85.8791 5.41747 86.9584 5.90622C88.0377 6.39498 88.9134 7.09756 89.5854 8.01397C90.2779 8.93038 90.6953 9.99951 90.8379 11.2214L86.928 11.4352Z" fill="white"/>
<path d="M58.8947 13.6346C58.8947 11.924 59.2205 10.4374 59.8723 9.17476C60.5239 7.89178 61.4504 6.90409 62.652 6.21169C63.8535 5.5193 65.2485 5.1731 66.8369 5.1731C68.2421 5.1731 69.5048 5.48875 70.6248 6.12005C71.7448 6.75135 72.6409 7.7085 73.3128 8.99147C73.985 10.2541 74.3414 11.812 74.3821 13.6652V14.6732H62.8658C62.9473 16.058 63.3342 17.1373 64.0267 17.9111C64.719 18.6646 65.6557 19.0414 66.8369 19.0414C67.5904 19.0414 68.2727 18.8479 68.8836 18.461C69.5149 18.0537 69.9833 17.4937 70.2887 16.7809L74.1682 17.0559C73.6795 18.6036 72.7631 19.8356 71.419 20.752C70.0952 21.6481 68.5679 22.0961 66.8369 22.0961C65.2485 22.0961 63.8535 21.7499 62.652 21.0575C61.4504 20.3651 60.5239 19.3774 59.8723 18.0945C59.2205 16.8115 58.8947 15.3249 58.8947 13.6346ZM70.472 12.0767C70.3091 10.753 69.8916 9.77551 69.2197 9.14421C68.5679 8.51289 67.7737 8.19725 66.8369 8.19725C65.7373 8.19725 64.8515 8.54344 64.1793 9.23585C63.5074 9.90787 63.0797 10.8548 62.8964 12.0767H70.472Z" fill="white"/>
<path d="M47.754 4.48223V4.55988H47.8317H52.3726V22.0156V22.0933H52.4502H54.6079H55.7534H56.3261H56.8989H56.931L56.9538 22.0706L57.0257 21.9987L57.072 21.9998V21.9201L57.0462 3.89122H62.449H62.5267V3.81357V0.422864V0.345215H62.449H47.9272H47.8495V0.422864V3.73592H47.8317V3.81357H47.754V4.48223ZM53.1177 21.9024L54.5644 21.938H52.5279V4.48223V4.40458H52.4502H47.9093V3.89122H47.9272H48.0048H53.0419V21.8248V21.9006L53.1177 21.9024Z" fill="white" stroke="white" stroke-width="0.155298"/>
<path d="M49.8347 24.1492H49.757V24.2268V45.9685V46.0461H49.8347H51.9702L51.9733 45.9511H59.31C61.8833 45.9511 63.866 45.433 65.247 44.3858L65.2476 44.3854C66.632 43.3151 67.3212 41.7716 67.3212 39.7668C67.3212 38.1892 66.8138 36.9412 65.7929 36.0328C65.0249 35.3359 64.0133 34.8913 62.7627 34.6951C63.2735 34.5914 63.7374 34.4317 64.1536 34.2152C64.8869 33.8445 65.4494 33.3283 65.8381 32.6665L65.8385 32.6655C66.2268 31.9838 66.4197 31.1904 66.4197 30.2878C66.4197 28.2434 65.7309 26.7183 64.344 25.7284C62.9623 24.7219 60.8793 24.225 58.1078 24.225H50.9208V24.1492H50.8432H49.8347ZM49.9123 24.3045H50.4271V45.6835V45.8734V45.8908H49.9123V24.3045ZM62.2673 37.3063L62.2684 37.3072C62.9474 37.8171 63.2893 38.5519 63.2893 39.5238C63.2893 40.4952 62.9475 41.23 62.269 41.7399C61.5859 42.2328 60.6227 42.4842 59.3701 42.4842H54.3689V36.5025H59.3701C60.6219 36.5025 61.5845 36.7738 62.2673 37.3063ZM61.34 32.5627C60.6367 33.0368 59.6325 33.2786 58.3183 33.2786H54.3689V27.6615H58.3183C59.6734 27.6615 60.6867 27.9036 61.3692 28.3768C62.0465 28.8461 62.3877 29.5496 62.3877 30.5005C62.3877 31.4086 62.0381 32.0923 61.34 32.5627Z" fill="white" stroke="white" stroke-width="0.155298"/>
</g>
<defs>
<clipPath id="clip0_491_106">
<rect width="107" height="46.5893" fill="white" transform="translate(0 0.000488281)"/>
</clipPath>
</defs>
</svg>
